<?xml version="1.0" standalone="no"?><!DOCTYPE svg PUBLIC "-//W3C//DTD SVG 1.1//EN" "http://www.w3.org/Graphics/SVG/1.1/DTD/svg11.dtd"><svg t="1773816330376" class="icon" viewBox="0 0 1024 1024" version="1.1" xmlns="http://www.w3.org/2000/svg" p-id="3283" xmlns:xlink="http://www.w3.org/1999/xlink" width="256" height="256"><path d="M252.8 652.8l167.895-94.295 2.77-8.105-2.77-4.48h-8.11l-28.16-1.705-96-2.56-83.2-3.415-80.64-4.265-20.265-4.27-18.985-24.96 1.92-12.585 17.065-11.52 24.32 2.135 53.975 3.625 81.065 5.545 58.665 3.415 87.04 9.175h13.87l1.92-5.55-4.695-3.41-3.625-3.415-83.84-56.745-90.67-60.16-47.57-34.56L168.96 323.2l-13.015-16.425-5.545-35.84 23.255-25.815 31.36 2.135 7.89 2.13 31.79 24.32 67.84 52.48 88.53 65.28 13.015 10.88 5.12-3.625 0.64-2.56-5.76-9.815-48.215-87.04-51.41-88.53-22.83-36.695-5.97-21.975a107.858 107.858 0 0 1-3.63-26.025l26.67-36.055 14.72-4.69 35.41 4.69 14.935 13.015 21.975 50.345 35.625 79.36 55.255 107.735 16.21 32 8.75 29.655 3.2 9.17h5.545v-5.12l4.48-60.8 8.32-74.45 8.105-96L544 147.84l13.44-32.425 26.665-17.495 20.695 10.025 17.065 24.32-2.345 15.79-10.24 65.92-19.84 103.25-13.015 69.12h7.47l8.745-8.745 34.985-46.505 58.67-73.39 26.025-29.225 30.295-32.215 19.41-15.36h36.695l27.095 40.11-12.16 41.385-37.76 48-31.36 40.535-45.015 60.585-28.16 48.425 2.56 3.84 6.615-0.64L782.08 441.6l54.825-10.025 65.495-11.31 29.655 13.87 3.2 14.08-11.735 28.8-69.975 17.28-82.13 16.425-122.24 29.015-1.495 1.065 1.705 2.135 55.04 5.12 23.47 1.28h57.6l107.305 7.89 28.16 18.56 16.855 22.615-2.775 17.28-43.305 21.975-58.24-13.87-136.11-32.425-46.72-11.735h-6.4v3.84l38.83 37.975 71.25 64.425 89.175 82.99 4.48 20.48-11.52 16.21-12.16-1.705-78.505-58.88-30.295-26.665-68.48-57.6h-4.48v5.97l15.785 23.04 83.415 125.23 4.265 38.4-5.97 12.585-21.55 7.465-23.68-4.265-48.85-68.48-50.35-77.225-40.53-69.12-4.91 2.77-23.89 258.135-11.31 13.225-26.025 10.03-21.545-16.43-11.52-26.665 11.52-52.48 13.865-68.48 11.305-54.4 10.24-67.625 5.975-22.4-0.425-1.495-4.91 0.64-50.985 69.975-77.655 104.745-61.44 65.705-14.72 5.76-25.385-13.225 2.345-23.465 14.295-20.91 84.905-107.945 51.2-66.985 33.07-38.615v-5.545h-2.135l-225.495 146.56-40.105 5.12-17.28-16.215 2.135-26.665 8.105-8.75 67.84-46.72h-0.215l0.855 0.855z" fill="#D97757" p-id="3284"></path></svg>